<svg id="Layer_1" data-name="Layer 1" xmlns="http://www.w3.org/2000/svg" viewBox="0 0 280 280"><defs><style>.cls-1{fill:#fff;}</style></defs><path class="cls-1" d="M66.14,94.15a4.46,4.46,0,0,1,2.59-2.26c.28-.12,1.27-.44,3-1a64.57,64.57,0,0,1,9.64-2.63,6.28,6.28,0,0,1,4,.79,3.61,3.61,0,0,0,3,.63,79.74,79.74,0,0,0,8.57-3.38l4.36-1.89,14-6.07Q113.8,86,111,101.16l-8.62,2.92-4.27,1.53q-2.31.83-3.6,1.23t-1.56.51q-.56.24,4.21,23.6t7.69,35.37l.77,2.9q3.21-1.54,9.45-4.73t9.31-4.67l1.22,4.32c.45,1.54.73,2.44.85,2.71.39.91.94,1.38,1.65,1.39a28.37,28.37,0,0,0,4.91-.82q2.76-.72,3.18.24a14.82,14.82,0,0,1,.66,3.76l.53,3.5-27.69,12Q82.51,198.62,82,197.53l-.24-.54a11.34,11.34,0,0,0-1.19,1,65.74,65.74,0,0,1-9.68,5.32c-3.19,1.59-4.93,2.45-5.2,2.57a15.25,15.25,0,0,1-1.53.58,1.59,1.59,0,0,1-1.06,0,5.26,5.26,0,0,1-.72-.33,3.19,3.19,0,0,1-.65-.77c-1.07-1.48-1.65-2.32-1.73-2.5-.43-1,0-1.93,1.22-2.79a76.78,76.78,0,0,1,9-4.56q10.36-4.48,11.44-5.75c.57-.68,1-.79,1.15-.34s.8.68,1.83.67a2.42,2.42,0,0,0,2-.72c.39-.6.22-1.23-.49-1.89-.46-.56-1.69-.4-3.69.46l-1.91.83-3.54,1.53-10,4.3-8.93,3.7-1.85-5-2.12-4.91,2.82-1.7a53.67,53.67,0,0,1,5.91-3.2A28.92,28.92,0,0,1,72,181a43.23,43.23,0,0,0,11.72-3.61,40.51,40.51,0,0,0,6-2.93,2,2,0,0,0,.66-2.22q-.8-4.85-7.43-30.47T75.36,114q-.58-1.36-18.25,3.85-2.72.84-8-2.85l-5.4-3.49-13.76,5.62q-13.49,5.5-16.55,5.54a9.94,9.94,0,0,1-1.39,0,3.46,3.46,0,0,1-1-.22c-.26-.1-.36-.22-.31-.35s9.24-4.64,27.42-13.15S65.63,95.45,66.14,94.15Zm-1.8,94.68a6.42,6.42,0,0,0-4.62.54c-1.28.55-1.93,1.16-2,1.82a.71.71,0,0,0,.82.78,10.46,10.46,0,0,0,3-1C63.7,190,64.62,189.24,64.34,188.83Zm31.8-1a8.67,8.67,0,0,1-1.49,1,18.24,18.24,0,0,0-2.22,1.6c-.63.54-.86,1-.7,1.36s.45.29,1,.06a15.93,15.93,0,0,0,2.38-1.44c1-.71,1.6-1.09,1.69-1.13.55-.24.83-.52.85-.85a.67.67,0,0,0-.46-.7A1.35,1.35,0,0,0,96.14,187.87Zm103.29-68.28a6.75,6.75,0,0,1,.89-2.33c.39-.59.76-.84,1.12-.78l7.59,1.36q7.59,1.38,14.76,2.88c4.78,1,7.21,1.75,7.27,2.21q.15,1-2.34,6.94t-3.6,6.77q-1.59,1.11-36.93,6.22l-35.86,5.19-1.74,2.54a20.46,20.46,0,0,0-1.45,3.38q.12.85-3.21,8.21l-3.34,7.34,18.59,22.65q19.27,23.79,19.9,24.4a1.44,1.44,0,0,0,1.33.69q1.54-.22,8.26-7.35,7.31-7.92,7.21-8.61c0-.23-2.45-.24-7.22,0l-6.31.2-1.82-12.58,9.53-2.26q5.81-1.18,6.84-1.34a34.28,34.28,0,0,1,10.62.4q8.08,1.11,25.25-.67,8.49-.87,16.65-1.08a115.21,115.21,0,0,1,13,.23q4.82.45,4.94,1.31.15,1-7.95,2.21l-9,1.3a85.25,85.25,0,0,1-3.75,8.11l-10.42,1c-7.3.6-12.08.87-14.31.84a4.15,4.15,0,0,1-.7,0,4.63,4.63,0,0,0-.88,0,5.63,5.63,0,0,0-3.43,2.43q-1.71,2.19-7,10.52-8.52,12.84-10,13.59l-.86.12c-.47.07-1.39.17-2.77.32s-2.43.26-3.12.36c-1.61.23-2.55.6-2.83,1.11s.06.81,1,.91a16.78,16.78,0,0,0,2.61-.2c2.87-.42,4.35-.4,4.41.06.14.92-1.94,4.45-6.21,10.58s-6.82,9.26-7.62,9.38q-1.72.26-35.27-38.19-33.69-38.25-33.89-39.62-.18-1.22,2.71-8.05c1.92-4.56,3.16-6.88,3.74-7s1-.66.81-1.7.68-4.2,2.54-9.17,3.28-7.74,4.25-8.36,10.36-2.61,28.22-5.66,29-5.07,32.92-6a23.28,23.28,0,0,0,5.54-1.86C198.74,122.15,199.18,121.15,199.43,119.59Zm-65.49,33.94c.41-.41-.25-.5-2-.25-1.5.22-2.23.39-2.22.5s.21.21.57.27A9.61,9.61,0,0,0,133.94,153.53Zm63.78,43c.87.34,1.49.19,1.87-.45.3-.39.15-.55-.42-.47l-.86.13a2.35,2.35,0,0,0-1.1.33C197.06,196.25,197.22,196.4,197.72,196.57Zm12.74,1.67a.52.52,0,0,0-.15-1,.52.52,0,1,0,.15,1ZM80.85,32.28q13.66-.45,14.65-.45,2.25,0,2.25.36,0,1.44-3.69,2A5.09,5.09,0,0,0,90.65,36a4.41,4.41,0,0,0-.9,1.44q0,.27.81,1.08,3.24,3.6,6.38,16a66.09,66.09,0,0,1,1.89,8.36c0,.6-.86,2.07-2.56,4.4A66.47,66.47,0,0,1,91,73.62a37.08,37.08,0,0,1-12.85,9.17Q71.32,85.58,60.45,86l-7.64.27-5.48-4.77a112.41,112.41,0,0,1-8.77-8,5.78,5.78,0,0,1-1.3-3.82A35.26,35.26,0,0,1,41,54.3q6.66-13.84,25.62-20.13A29.31,29.31,0,0,1,72,32.86Q74.39,32.55,80.85,32.28Zm-37,26.15a3.25,3.25,0,0,0-1.8-.54c-.66,0-1,.19-1,.54s.6.54,1.8.54q1.26,0,1.35-.18C44.18,58.67,44.06,58.56,43.82,58.43Zm1,4.23q.63.36,1-.09.18-.27-.27-.27h-.45a.94.94,0,0,0-.54.09ZM84.63,53.4q-2.79-8.8-8.27-11h-.18q-1.44,0-8.63,3.59a72.44,72.44,0,0,0-10.16,5.84c-2,1.44-3.2,2.16-3.68,2.16s-.6.18-.36.54v.09l.09.18c0,.72-.62,2-1.84,3.95s-2.12,2.91-2.66,3h-.08l-.54.18.54.09c.65.18.86.66.62,1.44L49,65c-.27.81-.47,1.45-.58,1.93l-.72,2.25q3,2.25,8.71,6.92l3.15-.36a70.14,70.14,0,0,0,16-3.77Q85.7,68.05,85.71,59.6A20.81,20.81,0,0,0,84.63,53.4ZM50.56,55.74q1,0,.45-1.08-.27-.63-.72-.63t-.54.81Q49.75,55.74,50.56,55.74Zm33.8,14.11a.27.27,0,1,0-.27-.27A.24.24,0,0,0,84.36,69.85Z"/></svg>